<svg width="24" height="24" viewBox="0 0 24 24" fill="none" xmlns="http://www.w3.org/2000/svg">
<circle cx="12" cy="12" r="12" fill="#FDA32F"/>
<path fill-rule="evenodd" clip-rule="evenodd" d="M11.4028 4.12041C11.3837 4.19496 11.2679 4.67025 11.1455 5.17667C10.9687 5.90772 10.9108 6.09742 10.8642 6.09742C10.832 6.09742 10.2619 5.95705 9.59733 5.78552C8.93278 5.61402 8.38504 5.47726 8.38014 5.48162C8.36456 5.49553 8.04427 6.85175 8.05459 6.8602C8.06 6.86466 8.18616 6.89729 8.33495 6.93274C9.06879 7.10763 9.34911 7.23634 9.45952 7.4491C9.58215 7.68544 9.58648 7.66238 8.83745 10.7639C8.4051 12.554 8.0921 13.7795 8.05289 13.8354C8.017 13.8865 7.92622 13.9598 7.85113 13.9983L7.71457 14.0683L7.24028 13.9509C6.97943 13.8863 6.73168 13.8242 6.6898 13.8129C6.63603 13.7982 6.60796 13.8122 6.59448 13.8603C6.58398 13.8977 6.44591 14.2322 6.28768 14.6034L6 15.2785L7.24828 15.6019C7.93484 15.7798 8.50703 15.932 8.5198 15.9402C8.5326 15.9483 8.4254 16.4394 8.28164 17.0315L8.02021 18.1081L8.64488 18.2674C8.98847 18.3551 9.276 18.4191 9.28383 18.4097C9.29165 18.4003 9.40819 17.9322 9.5428 17.3695C9.67744 16.8069 9.79751 16.3355 9.80967 16.3221C9.83192 16.2975 10.7413 16.5281 10.7802 16.5682C10.7916 16.5801 10.6871 17.0589 10.5479 17.6323C10.4086 18.2058 10.3042 18.6809 10.3157 18.6881C10.3527 18.7114 11.5519 19.0119 11.5586 18.9996C11.5622 18.9931 11.6765 18.5191 11.8126 17.9462C11.9488 17.3733 12.0654 16.8944 12.0719 16.8821C12.0784 16.8698 12.275 16.893 12.5087 16.9339C12.834 16.9907 13.107 17.0086 13.673 17.01C14.326 17.0117 14.4462 17.0024 14.701 16.9304C15.1996 16.7894 15.4918 16.6168 15.8409 16.2571C16.1077 15.9821 16.1772 15.8825 16.3365 15.5466C16.579 15.035 16.7015 14.5857 16.7267 14.1144C16.7718 13.2737 16.4626 12.6715 15.7243 12.1621C15.4755 11.9905 15.4146 11.9327 15.4649 11.9163C16.1026 11.7078 16.5172 11.354 16.7571 10.8134C17.0859 10.0725 17.0805 9.20852 16.7432 8.60853C16.4288 8.04924 15.7624 7.55107 14.8272 7.17615C14.6586 7.10856 14.5071 7.04104 14.4906 7.02612C14.4741 7.0112 14.5661 6.55756 14.6952 6.01806C14.8242 5.47857 14.9351 5.00402 14.9416 4.96351C14.9522 4.89736 14.8908 4.87363 14.3425 4.73182C14.0064 4.64491 13.7248 4.58074 13.7166 4.58918C13.7085 4.59759 13.5914 5.05871 13.4566 5.61379C13.3218 6.16888 13.2058 6.6281 13.1988 6.63424C13.1819 6.64912 12.2407 6.41902 12.2171 6.39421C12.2069 6.3835 12.3103 5.91513 12.4467 5.35334C12.6124 4.67136 12.682 4.32375 12.6562 4.30731C12.6243 4.28696 12.0772 4.14105 11.5544 4.01345C11.4425 3.98614 11.436 3.99072 11.4028 4.12041ZM12.3141 8.0527C13.9545 8.44001 14.6542 9.02943 14.502 9.8956C14.4486 10.1989 14.3654 10.3624 14.1691 10.549C13.735 10.9617 12.9947 10.9973 11.6917 10.6682C11.4102 10.5971 11.2233 10.5323 11.2317 10.5085C11.2394 10.4866 11.3805 9.90363 11.5451 9.21306C11.7098 8.52252 11.8594 7.9575 11.8777 7.9575C11.896 7.9575 12.0923 8.00032 12.3141 8.0527ZM11.3949 11.9728C12.9513 12.3448 13.7639 12.7883 14.0457 13.4196C14.1614 13.6791 14.1536 14.1169 14.0281 14.3966C13.8569 14.7784 13.5381 15.0149 13.0741 15.1047C12.7629 15.1649 11.8941 15.124 11.4368 15.0276C11.0801 14.9524 10.2452 14.7392 10.2246 14.7179C10.2097 14.7026 10.9029 11.8637 10.9215 11.8637C10.9308 11.8637 11.1438 11.9128 11.3949 11.9728Z" fill="white"/>
</svg>
