<svg width="32" height="32" viewBox="0 0 32 32" fill="none" xmlns="http://www.w3.org/2000/svg">
<circle cx="16" cy="16" r="15.5" fill="#21232A" stroke="#454547"/>
<path d="M19.2263 11.8643C19.4794 11.8643 19.6886 12.0524 19.7218 12.2964L19.7263 12.3643V21.4428C19.7263 21.7189 19.5025 21.9428 19.2263 21.9428C18.9732 21.9428 18.764 21.7547 18.7309 21.5106L18.7263 21.4428V12.3643C18.7263 12.0881 18.9502 11.8643 19.2263 11.8643Z" fill="#2752E7"/>
<path d="M21.5905 18.3593C21.7853 18.1636 22.1019 18.1629 22.2976 18.3577C22.4755 18.5348 22.4923 18.8125 22.3475 19.0086L22.2992 19.0648L19.5807 21.7959C19.403 21.9744 19.1242 21.9906 18.9281 21.8446L18.872 21.7959L16.1534 19.0648C15.9586 18.8691 15.9594 18.5525 16.1551 18.3577C16.333 18.1806 16.6108 18.1651 16.8062 18.3108L16.8622 18.3593L19.226 20.734L21.5905 18.3593Z" fill="#2752E7"/>
<path d="M12.6074 10.0552C12.8606 10.0552 13.0697 10.2433 13.1029 10.4874L13.1074 10.5552V19.6338C13.1074 19.9099 12.8836 20.1338 12.6074 20.1338C12.3543 20.1338 12.1451 19.9457 12.112 19.7016L12.1074 19.6338V10.5552C12.1074 10.2791 12.3313 10.0552 12.6074 10.0552Z" fill="#2752E7"/>
<path d="M12.2531 10.2021C12.4307 10.0236 12.7096 10.0074 12.9056 10.1535L12.9618 10.2021L15.6803 12.9332C15.8751 13.129 15.8744 13.4455 15.6787 13.6404C15.5008 13.8175 15.223 13.8329 15.0276 13.6873L14.9716 13.6387L12.6073 11.2633L10.2433 13.6387C10.0662 13.8166 9.78845 13.8334 9.59237 13.6886L9.53618 13.6404C9.35826 13.4633 9.34148 13.1855 9.48626 12.9894L9.53455 12.9332L12.2531 10.2021Z" fill="#2752E7"/>
</svg>
