<svg width="14" height="13" viewBox="0 0 14 13" fill="none" xmlns="http://www.w3.org/2000/svg">
<path d="M6.1534 3.19368V0.521003C6.1534 0.23682 6.38007 0 6.66673 0C6.9234 0 7.14085 0.198994 7.17531 0.451054L7.18007 0.521003V3.19368L10.3667 3.19388C11.9533 3.19388 13.2569 4.49319 13.3301 6.11361L13.3333 6.25739V9.61693C13.3333 11.2487 12.0751 12.5881 10.512 12.6633L10.3733 12.6667H2.96C1.37333 12.6667 0.0760599 11.3739 0.00322519 9.7475L0 9.60316L0 6.25051C0 4.61873 1.25194 3.27281 2.81466 3.19723L2.95333 3.19388H6.15333V7.46214L5.08667 6.36066C4.88667 6.15413 4.56 6.15413 4.36 6.36066C4.26 6.46392 4.21333 6.60161 4.21333 6.73929C4.21333 6.84393 4.2432 6.95298 4.30635 7.04529L4.36 7.11104L6.3 9.12126C6.39333 9.22452 6.52667 9.2796 6.66667 9.2796C6.77778 9.2796 6.88889 9.24135 6.97685 9.16884L7.02667 9.12126L8.96667 7.11104C9.16667 6.90452 9.16667 6.56719 8.96667 6.36066C8.78485 6.1729 8.49835 6.15584 8.2975 6.30945L8.24 6.36066L7.18 7.46214V3.19388L6.1534 3.19368Z" fill="#3C68FF"/>
</svg>
