<svg width="14" height="14" viewBox="0 0 14 14" fill="none" xmlns="http://www.w3.org/2000/svg">
<path fill-rule="evenodd" clip-rule="evenodd" d="M5.26357 6.15333C4.9719 6.15333 4.74128 6.38 4.74128 6.66667C4.74128 6.94667 4.9719 7.18 5.26357 7.18H9.33333V10.3667C9.33333 12 7.98353 13.3333 6.31492 13.3333H3.01163C1.34981 13.3333 0 12.0067 0 10.3733V2.96667C0 1.32667 1.35659 0 3.01841 0H6.32849C7.98353 0 9.33333 1.32667 9.33333 2.96V6.15333H5.26357ZM11.7535 4.36013L13.7001 6.30013C13.8001 6.40013 13.8535 6.5268 13.8535 6.6668C13.8535 6.80013 13.8001 6.93347 13.7001 7.0268L11.7535 8.9668C11.6535 9.0668 11.5201 9.12013 11.3935 9.12013C11.2601 9.12013 11.1268 9.0668 11.0268 8.9668C10.8268 8.7668 10.8268 8.44013 11.0268 8.24013L12.0935 7.18013H9.33347V6.15347H12.0935L11.0268 5.09347C10.8268 4.89347 10.8268 4.5668 11.0268 4.3668C11.2268 4.16013 11.5535 4.16013 11.7535 4.36013Z" fill="#3C68FF"/>
</svg>
