<svg width="112" height="44" viewBox="0 0 112 44" fill="none" xmlns="http://www.w3.org/2000/svg">
<path d="M33.7127 22.0002C33.7127 25.1066 32.4787 28.0858 30.2821 30.2824C28.0856 32.479 25.1064 33.713 21.9999 33.713C18.8935 33.713 15.9143 32.479 13.7177 30.2824C11.5211 28.0858 10.2871 25.1066 10.2871 22.0002L15.8793 22.0002C15.8793 23.6234 16.5242 25.1802 17.672 26.3281C18.8198 27.4759 20.3766 28.1208 21.9999 28.1208C23.6232 28.1208 25.18 27.4759 26.3278 26.3281C27.4757 25.1802 28.1205 23.6234 28.1205 22.0002L33.7127 22.0002Z" fill="#2745EA"/>
<circle cx="22.0054" cy="17.489" r="4.10976" transform="rotate(-120 22.0054 17.489)" fill="#EA27E1"/>
<path d="M45.8 19.6C45.3067 19.6 44.8933 19.4467 44.56 19.14C44.24 18.82 44.08 18.4267 44.08 17.96C44.08 17.4933 44.24 17.1067 44.56 16.8C44.8933 16.48 45.3067 16.32 45.8 16.32C46.2933 16.32 46.7 16.48 47.02 16.8C47.3533 17.1067 47.52 17.4933 47.52 17.96C47.52 18.4267 47.3533 18.82 47.02 19.14C46.7 19.4467 46.2933 19.6 45.8 19.6ZM47.18 20.92V32H44.38V20.92H47.18ZM58.4664 23.68V26.04H49.9864V23.68H58.4664ZM65.8466 32.18C64.9399 32.18 64.1266 32.02 63.4066 31.7C62.6866 31.3667 62.1132 30.92 61.6866 30.36C61.2732 29.8 61.0466 29.18 61.0066 28.5H63.8266C63.8799 28.9267 64.0866 29.28 64.4466 29.56C64.8199 29.84 65.2799 29.98 65.8266 29.98C66.3599 29.98 66.7732 29.8733 67.0666 29.66C67.3732 29.4467 67.5266 29.1733 67.5266 28.84C67.5266 28.48 67.3399 28.2133 66.9666 28.04C66.6066 27.8533 66.0266 27.6533 65.2266 27.44C64.3999 27.24 63.7199 27.0333 63.1866 26.82C62.6666 26.6067 62.2132 26.28 61.8266 25.84C61.4532 25.4 61.2666 24.8067 61.2666 24.06C61.2666 23.4467 61.4399 22.8867 61.7866 22.38C62.1466 21.8733 62.6532 21.4733 63.3066 21.18C63.9732 20.8867 64.7532 20.74 65.6466 20.74C66.9666 20.74 68.0199 21.0733 68.8066 21.74C69.5932 22.3933 70.0266 23.28 70.1066 24.4H67.4266C67.3866 23.96 67.1999 23.6133 66.8666 23.36C66.5466 23.0933 66.1132 22.96 65.5666 22.96C65.0599 22.96 64.6666 23.0533 64.3866 23.24C64.1199 23.4267 63.9866 23.6867 63.9866 24.02C63.9866 24.3933 64.1732 24.68 64.5466 24.88C64.9199 25.0667 65.4999 25.26 66.2866 25.46C67.0866 25.66 67.7466 25.8667 68.2666 26.08C68.7866 26.2933 69.2332 26.6267 69.6066 27.08C69.9932 27.52 70.1932 28.1067 70.2066 28.84C70.2066 29.48 70.0266 30.0533 69.6666 30.56C69.3199 31.0667 68.8132 31.4667 68.1466 31.76C67.4932 32.04 66.7266 32.18 65.8466 32.18ZM73.925 19.6C73.4317 19.6 73.0183 19.4467 72.685 19.14C72.365 18.82 72.205 18.4267 72.205 17.96C72.205 17.4933 72.365 17.1067 72.685 16.8C73.0183 16.48 73.4317 16.32 73.925 16.32C74.4183 16.32 74.825 16.48 75.145 16.8C75.4783 17.1067 75.645 17.4933 75.645 17.96C75.645 18.4267 75.4783 18.82 75.145 19.14C74.825 19.4467 74.4183 19.6 73.925 19.6ZM75.305 20.92V32H72.505V20.92H75.305ZM82.4114 20.74C83.2381 20.74 83.9647 20.9067 84.5914 21.24C85.2181 21.56 85.7114 21.98 86.0714 22.5V20.92H88.8914V32.08C88.8914 33.1067 88.6847 34.02 88.2714 34.82C87.8581 35.6333 87.2381 36.2733 86.4114 36.74C85.5847 37.22 84.5847 37.46 83.4114 37.46C81.8381 37.46 80.5447 37.0933 79.5314 36.36C78.5314 35.6267 77.9647 34.6267 77.8314 33.36H80.6114C80.7581 33.8667 81.0714 34.2667 81.5514 34.56C82.0447 34.8667 82.6381 35.02 83.3314 35.02C84.1447 35.02 84.8047 34.7733 85.3114 34.28C85.8181 33.8 86.0714 33.0667 86.0714 32.08V30.36C85.7114 30.88 85.2114 31.3133 84.5714 31.66C83.9447 32.0067 83.2247 32.18 82.4114 32.18C81.4781 32.18 80.6247 31.94 79.8514 31.46C79.0781 30.98 78.4647 30.3067 78.0114 29.44C77.5714 28.56 77.3514 27.5533 77.3514 26.42C77.3514 25.3 77.5714 24.3067 78.0114 23.44C78.4647 22.5733 79.0714 21.9067 79.8314 21.44C80.6047 20.9733 81.4647 20.74 82.4114 20.74ZM86.0714 26.46C86.0714 25.78 85.9381 25.2 85.6714 24.72C85.4047 24.2267 85.0447 23.8533 84.5914 23.6C84.1381 23.3333 83.6514 23.2 83.1314 23.2C82.6114 23.2 82.1314 23.3267 81.6914 23.58C81.2514 23.8333 80.8914 24.2067 80.6114 24.7C80.3447 25.18 80.2114 25.7533 80.2114 26.42C80.2114 27.0867 80.3447 27.6733 80.6114 28.18C80.8914 28.6733 81.2514 29.0533 81.6914 29.32C82.1447 29.5867 82.6247 29.72 83.1314 29.72C83.6514 29.72 84.1381 29.5933 84.5914 29.34C85.0447 29.0733 85.4047 28.7 85.6714 28.22C85.9381 27.7267 86.0714 27.14 86.0714 26.46ZM97.8661 20.76C98.7061 20.76 99.4528 20.9467 100.106 21.32C100.759 21.68 101.266 22.22 101.626 22.94C101.999 23.6467 102.186 24.5 102.186 25.5V32H99.3861V25.88C99.3861 25 99.1661 24.3267 98.7261 23.86C98.2861 23.38 97.6861 23.14 96.9261 23.14C96.1528 23.14 95.5394 23.38 95.0861 23.86C94.6461 24.3267 94.4261 25 94.4261 25.88V32H91.6261V17.2H94.4261V22.3C94.7861 21.82 95.2661 21.4467 95.8661 21.18C96.4661 20.9 97.1328 20.76 97.8661 20.76ZM108.109 23.22V28.58C108.109 28.9533 108.195 29.2267 108.369 29.4C108.555 29.56 108.862 29.64 109.289 29.64H110.589V32H108.829C106.469 32 105.289 30.8533 105.289 28.56V23.22H103.969V20.92H105.289V18.18H108.109V20.92H110.589V23.22H108.109Z" fill="white"/>
</svg>
