<svg width="56" height="56" viewBox="0 0 56 56" fill="none" xmlns="http://www.w3.org/2000/svg">
<path d="M42.6997 27.7102C42.6997 31.6486 41.1351 35.4257 38.3502 38.2106C35.5654 40.9954 31.7882 42.56 27.8498 42.56C23.9114 42.56 20.1343 40.9955 17.3494 38.2106C14.5645 35.4257 13 31.6486 13 27.7102L20.09 27.7102C20.09 29.7682 20.9075 31.742 22.3628 33.1972C23.818 34.6525 25.7918 35.47 27.8498 35.47C29.9079 35.47 31.8816 34.6525 33.3369 33.1972C34.7921 31.7419 35.6097 29.7682 35.6097 27.7102L42.6997 27.7102Z" fill="#2745EA"/>
<circle cx="30.7171" cy="21.9905" r="5.21046" transform="rotate(-120 30.7171 21.9905)" fill="#EA27E1"/>
</svg>
