<svg width="80" height="80" viewBox="0 0 80 80" fill="none" xmlns="http://www.w3.org/2000/svg">
<circle cx="40" cy="40" r="40" fill="#4744A0"/>
<path d="M51.24 50.1467C51.2558 50.695 51.1586 51.2408 50.9544 51.75C50.7503 52.2592 50.4436 52.721 50.0533 53.1067C49.2593 53.8947 48.1853 54.3358 47.0667 54.3333H32.9467C31.8682 54.3376 30.8303 53.9229 30.0517 53.1766C29.2732 52.4304 28.8148 51.411 28.7733 50.3333V49.7333C28.7854 48.5721 29.0408 47.4262 29.5231 46.3698C30.0054 45.3134 30.7038 44.3698 31.5733 43.6L35.1867 40.3467C35.2474 40.3007 35.2967 40.2412 35.3307 40.173C35.3646 40.1047 35.3822 40.0295 35.3822 39.9533C35.3822 39.8771 35.3646 39.8019 35.3307 39.7337C35.2967 39.6654 35.2474 39.606 35.1867 39.56L31.56 36.3067C31.3903 36.1261 31.2959 35.8877 31.2959 35.64C31.2959 35.3922 31.3903 35.1538 31.56 34.9733C31.7475 34.7861 32.0017 34.6809 32.2667 34.6809C32.5317 34.6809 32.7858 34.7861 32.9733 34.9733L36.5333 38.1067C36.7966 38.3369 37.0076 38.6208 37.1522 38.9393C37.2968 39.2578 37.3715 39.6035 37.3715 39.9533C37.3715 40.3031 37.2968 40.6488 37.1522 40.9673C37.0076 41.2858 36.7966 41.5697 36.5333 41.8L32.92 45.0533C32.2481 45.6293 31.7076 46.3428 31.3349 47.1455C30.9623 47.9483 30.7663 48.8217 30.76 49.7067V50.28C30.7807 50.8424 31.0188 51.3749 31.4242 51.7653C31.8295 52.1557 32.3705 52.3737 32.9333 52.3733H47.0667C47.6443 52.3698 48.1971 52.1379 48.6043 51.7282C49.0115 51.3185 49.24 50.7643 49.24 50.1867V49.7333C49.2367 48.844 49.0421 47.9657 48.6694 47.1582C48.2967 46.3507 47.7546 45.6328 47.08 45.0533L43.4667 41.8C43.2072 41.5674 42.9997 41.2827 42.8576 40.9645C42.7155 40.6463 42.642 40.3018 42.642 39.9533C42.642 39.6049 42.7155 39.2603 42.8576 38.9421C42.9997 38.6239 43.2072 38.3393 43.4667 38.1067L47.0667 34.8667C47.7376 34.2869 48.2773 33.5709 48.6497 32.7662C49.0222 31.9615 49.2189 31.0867 49.2267 30.2V29.7733C49.2249 29.4897 49.1673 29.2091 49.0572 28.9477C48.947 28.6863 48.7864 28.4492 48.5846 28.2499C48.3828 28.0505 48.1437 27.8929 47.881 27.786C47.6182 27.679 47.337 27.6249 47.0533 27.6267H32.9333C32.6497 27.6249 32.3685 27.679 32.1057 27.786C31.843 27.8929 31.6039 28.0505 31.4021 28.2499C31.2003 28.4492 31.0397 28.6863 30.9295 28.9477C30.8194 29.2091 30.7618 29.4897 30.76 29.7733V30.2C30.76 30.4652 30.6547 30.7196 30.4671 30.9071C30.2796 31.0946 30.0252 31.2 29.76 31.2C29.4948 31.2 29.2404 31.0946 29.0529 30.9071C28.8654 30.7196 28.76 30.4652 28.76 30.2V29.7733C28.7706 28.6759 29.2158 27.6274 29.9981 26.8576C30.7803 26.0878 31.8359 25.6595 32.9333 25.6667H47.0533C48.1508 25.6595 49.2064 26.0878 49.9886 26.8576C50.7709 27.6274 51.2161 28.6759 51.2267 29.7733V30.2C51.2151 31.3574 50.9597 32.4994 50.4773 33.5516C49.9948 34.6038 49.2961 35.5425 48.4267 36.3067L44.8133 39.56C44.7541 39.6083 44.7065 39.6693 44.6742 39.7386C44.6418 39.8079 44.6256 39.8836 44.6267 39.96C44.6266 40.0343 44.6434 40.1077 44.6757 40.1747C44.7081 40.2416 44.7551 40.3004 44.8133 40.3467L48.4267 43.6C49.2961 44.3641 49.9948 45.3028 50.4773 46.355C50.9597 47.4072 51.2151 48.5492 51.2267 49.7067L51.24 50.1467ZM34.52 47.7867L37.7467 44.52C38.3708 43.9163 39.2051 43.5789 40.0733 43.5789C40.9416 43.5789 41.7759 43.9163 42.4 44.52L45.6133 47.7867C45.8425 48.0134 45.9971 48.3045 46.0566 48.6213C46.1162 48.9381 46.0778 49.2655 45.9467 49.56C45.8204 49.8479 45.6134 50.093 45.3508 50.2658C45.0881 50.4385 44.781 50.5314 44.4667 50.5333H35.68C35.3608 50.5357 35.0481 50.4433 34.7814 50.2678C34.5148 50.0924 34.3061 49.8418 34.182 49.5477C34.0578 49.2537 34.0236 48.9294 34.0838 48.6159C34.144 48.3024 34.2958 48.0138 34.52 47.7867ZM36.5467 48.5733H43.6L40.9333 45.9067C40.6883 45.6855 40.37 45.5631 40.04 45.5631C39.71 45.5631 39.3917 45.6855 39.1467 45.9067L36.5467 48.5733Z" fill="white"/>
</svg>
