<svg width="80" height="80" viewBox="0 0 80 80" fill="none" xmlns="http://www.w3.org/2000/svg">
<circle cx="40" cy="40" r="40" fill="#4744A0"/>
<path d="M44.4267 27.6667C44.5062 27.654 44.5872 27.654 44.6667 27.6667C46.8498 28.2251 48.7901 29.4828 50.1913 31.2475C51.5925 33.0123 52.3776 35.1872 52.4267 37.44C52.3761 39.694 51.5907 41.8697 50.1899 43.6363C48.7892 45.4029 46.8498 46.6636 44.6667 47.2267H44.4267C44.2335 47.2383 44.0432 47.1758 43.8945 47.0519C43.7459 46.928 43.6501 46.7521 43.6267 46.56V28.3334C43.6501 28.1413 43.7459 27.9653 43.8945 27.8415C44.0432 27.7176 44.2335 27.6551 44.4267 27.6667ZM35.5867 32.7067C35.7784 32.6953 35.9671 32.7583 36.1136 32.8824C36.2601 33.0066 36.3531 33.1824 36.3733 33.3734V51.6667C36.3542 51.7804 36.3107 51.8886 36.2458 51.984C36.1809 52.0793 36.0961 52.1595 35.9973 52.219C35.8986 52.2785 35.7881 52.316 35.6735 52.3288C35.5589 52.3417 35.4428 52.3296 35.3333 52.2934C33.1502 51.7349 31.2099 50.4773 29.8087 48.7125C28.4075 46.9478 27.6224 44.7729 27.5733 42.52C27.6239 40.2661 28.4093 38.0903 29.8101 36.3237C31.2108 34.5571 33.1502 33.2964 35.3333 32.7334H35.5867M44.4267 25.6934C43.7027 25.679 43.0023 25.9511 42.4779 26.4505C41.9536 26.9499 41.6476 27.6362 41.6267 28.36V46.6667C41.6476 47.3905 41.9536 48.0768 42.4779 48.5762C43.0023 49.0756 43.7027 49.3477 44.4267 49.3334C44.6883 49.3359 44.9489 49.3 45.2 49.2267C47.8078 48.5553 50.1231 47.0462 51.79 44.9312C53.4569 42.8163 54.3832 40.2125 54.4267 37.52C54.3919 34.8206 53.4695 32.2077 51.802 30.0847C50.1344 27.9616 47.8143 26.4466 45.2 25.7734C44.9476 25.7061 44.6879 25.6703 44.4267 25.6667V25.6934ZM35.5733 30.6667C35.3117 30.6641 35.0512 30.7001 34.8 30.7734C32.1922 31.4448 29.877 32.9539 28.2101 35.0688C26.5432 37.1837 25.6168 39.7875 25.5733 42.48C25.6081 45.1794 26.5305 47.7923 28.198 49.9154C29.8656 52.0384 32.1857 53.5535 34.8 54.2267C35.0524 54.2939 35.3121 54.3298 35.5733 54.3334C36.2973 54.3477 36.9977 54.0756 37.5221 53.5762C38.0464 53.0768 38.3524 52.3905 38.3733 51.6667V33.3334C38.3524 32.6095 38.0464 31.9232 37.5221 31.4238C36.9977 30.9244 36.2973 30.6523 35.5733 30.6667Z" fill="white"/>
</svg>
