<svg width="48" height="48" viewBox="0 0 48 48" fill="none" xmlns="http://www.w3.org/2000/svg">
<rect x="2" y="2" width="44" height="44" rx="22" fill="#3C68FF" stroke="white" stroke-width="4"/>
<path d="M21.7224 28.784V28.308C21.7224 27.4867 21.853 26.7587 22.1144 26.124C22.3944 25.4893 22.7397 24.92 23.1504 24.416C23.5797 23.8933 24.0184 23.4173 24.4664 22.988C25.101 22.3907 25.661 21.812 26.1464 21.252C26.6504 20.692 26.9024 20.0387 26.9024 19.292C26.9024 18.8253 26.7904 18.4053 26.5664 18.032C26.3424 17.64 26.0064 17.332 25.5584 17.108C25.129 16.8653 24.597 16.744 23.9624 16.744C23.085 16.744 22.329 17.0147 21.6944 17.556C21.0784 18.0787 20.6864 18.788 20.5184 19.684L17.5784 18.984C17.7464 17.9573 18.1197 17.0613 18.6984 16.296C19.2957 15.512 20.0424 14.9053 20.9384 14.476C21.853 14.028 22.8797 13.804 24.0184 13.804C25.3064 13.804 26.4077 14.0653 27.3224 14.588C28.2557 15.092 28.965 15.7547 29.4504 16.576C29.9357 17.3973 30.1784 18.284 30.1784 19.236C30.1784 20.0013 30.0197 20.692 29.7024 21.308C29.4037 21.9053 29.0117 22.456 28.5264 22.96C28.0597 23.464 27.5744 23.9587 27.0704 24.444C26.473 25.0227 25.941 25.6293 25.4744 26.264C25.0264 26.88 24.8024 27.608 24.8024 28.448V28.784H21.7224ZM21.7224 35V31.36H24.9424V35H21.7224Z" fill="white"/>
</svg>
