<svg width="19" height="20" viewBox="0 0 19 20" fill="none" xmlns="http://www.w3.org/2000/svg">
<path d="M13.9396 0.9375C13.9396 0.68886 14.0396 0.450403 14.2175 0.274587C14.3955 0.0987719 14.6368 0 14.8885 0H18.0512C18.3028 0 18.5442 0.0987719 18.7221 0.274587C18.9 0.450403 19 0.68886 19 0.9375V4.0625C19 4.31114 18.9 4.5496 18.7221 4.72541C18.5442 4.90123 18.3028 5 18.0512 5C17.7995 5 17.5582 4.90123 17.3803 4.72541C17.2023 4.5496 17.1024 4.31114 17.1024 4.0625V3.2L11.4474 8.7875C11.2695 8.96306 11.0284 9.06168 10.7769 9.06168C10.5255 9.06168 10.2843 8.96306 10.1064 8.7875L6.98166 5.7L1.64298 10.975C1.55612 11.0671 1.45137 11.141 1.33498 11.1922C1.21859 11.2435 1.09295 11.271 0.965555 11.2732C0.838157 11.2755 0.711611 11.2523 0.593467 11.2052C0.475323 11.158 0.368 11.0878 0.277902 10.9988C0.187804 10.9098 0.116776 10.8037 0.0690556 10.687C0.0213352 10.5703 -0.00210013 10.4452 0.000147663 10.3193C0.00239545 10.1935 0.0302805 10.0693 0.082139 9.95433C0.133997 9.83933 0.208767 9.73583 0.301987 9.65L6.31116 3.7125C6.48906 3.53694 6.73022 3.43832 6.98166 3.43832C7.23309 3.43832 7.47425 3.53694 7.65215 3.7125L10.7769 6.8L15.7614 1.875H14.8885C14.6368 1.875 14.3955 1.77623 14.2175 1.60041C14.0396 1.4246 13.9396 1.18614 13.9396 0.9375ZM0.972484 15C1.22413 15 1.46546 15.0988 1.6434 15.2746C1.82134 15.4504 1.9213 15.6889 1.9213 15.9375V19.0625C1.9213 19.3111 1.82134 19.5496 1.6434 19.7254C1.46546 19.9012 1.22413 20 0.972484 20C0.720843 20 0.479507 19.9012 0.30157 19.7254C0.123632 19.5496 0.0236677 19.3111 0.0236677 19.0625V15.9375C0.0236677 15.6889 0.123632 15.4504 0.30157 15.2746C0.479507 15.0988 0.720843 15 0.972484 15ZM6.98166 12.1875C6.98166 11.9389 6.88169 11.7004 6.70375 11.5246C6.52582 11.3488 6.28448 11.25 6.03284 11.25C5.7812 11.25 5.53986 11.3488 5.36192 11.5246C5.18399 11.7004 5.08402 11.9389 5.08402 12.1875V19.0625C5.08402 19.3111 5.18399 19.5496 5.36192 19.7254C5.53986 19.9012 5.7812 20 6.03284 20C6.28448 20 6.52582 19.9012 6.70375 19.7254C6.88169 19.5496 6.98166 19.3111 6.98166 19.0625V12.1875ZM11.0932 13.75C11.3448 13.75 11.5862 13.8488 11.7641 14.0246C11.942 14.2004 12.042 14.4389 12.042 14.6875V19.0625C12.042 19.3111 11.942 19.5496 11.7641 19.7254C11.5862 19.9012 11.3448 20 11.0932 20C10.8416 20 10.6002 19.9012 10.4223 19.7254C10.2443 19.5496 10.1444 19.3111 10.1444 19.0625V14.6875C10.1444 14.4389 10.2443 14.2004 10.4223 14.0246C10.6002 13.8488 10.8416 13.75 11.0932 13.75ZM17.1024 9.6875C17.1024 9.43886 17.0024 9.2004 16.8245 9.02459C16.6465 8.84877 16.4052 8.75 16.1535 8.75C15.9019 8.75 15.6606 8.84877 15.4826 9.02459C15.3047 9.2004 15.2047 9.43886 15.2047 9.6875V19.0625C15.2047 19.3111 15.3047 19.5496 15.4826 19.7254C15.6606 19.9012 15.9019 20 16.1535 20C16.4052 20 16.6465 19.9012 16.8245 19.7254C17.0024 19.5496 17.1024 19.3111 17.1024 19.0625V9.6875Z" fill="#72767C"/>
</svg>
