<svg width="21" height="20" viewBox="0 0 21 20" fill="none" xmlns="http://www.w3.org/2000/svg">
<path fill-rule="evenodd" clip-rule="evenodd" d="M19.8887 12.8956H15.8407C13.9437 12.8956 12.3997 11.3526 12.3987 9.4566C12.3987 7.5586 13.9427 6.0146 15.8407 6.0136H19.8887C20.3027 6.0136 20.6387 6.3496 20.6387 6.7636C20.6387 7.1776 20.3027 7.5136 19.8887 7.5136H15.8407C14.7697 7.5146 13.8987 8.3856 13.8987 9.4556C13.8987 10.5246 14.7707 11.3956 15.8407 11.3956H19.8887C20.3027 11.3956 20.6387 11.7316 20.6387 12.1456C20.6387 12.5596 20.3027 12.8956 19.8887 12.8956Z" fill="#2745EA"/>
<path fill-rule="evenodd" clip-rule="evenodd" d="M16.2983 10.1436H15.9863C15.5723 10.1436 15.2363 9.8076 15.2363 9.3936C15.2363 8.9796 15.5723 8.6436 15.9863 8.6436H16.2983C16.7123 8.6436 17.0483 8.9796 17.0483 9.3936C17.0483 9.8076 16.7123 10.1436 16.2983 10.1436Z" fill="#2745EA"/>
<mask id="mask0_30_763" style="mask-type:alpha" maskUnits="userSpaceOnUse" x="0" y="0" width="21" height="20">
<path fill-rule="evenodd" clip-rule="evenodd" d="M0 0H20.6386V19.1729H0V0Z" fill="white"/>
</mask>
<g mask="url(#mask0_30_763)">
<path fill-rule="evenodd" clip-rule="evenodd" d="M5.99763 1.5C3.51763 1.5 1.49963 3.518 1.49963 5.998V13.175C1.49963 15.655 3.51763 17.673 5.99763 17.673H14.6416C17.1216 17.673 19.1386 15.655 19.1386 13.175V5.998C19.1386 3.518 17.1216 1.5 14.6416 1.5H5.99763ZM14.6416 19.173H5.99763C2.69063 19.173 -0.000366211 16.482 -0.000366211 13.175V5.998C-0.000366211 2.69 2.69063 0 5.99763 0H14.6416C17.9486 0 20.6386 2.69 20.6386 5.998V13.175C20.6386 16.482 17.9486 19.173 14.6416 19.173Z" fill="#2745EA"/>
</g>
<path fill-rule="evenodd" clip-rule="evenodd" d="M10.6846 6.0381H5.28564C4.87164 6.0381 4.53564 5.7021 4.53564 5.2881C4.53564 4.8741 4.87164 4.5381 5.28564 4.5381H10.6846C11.0986 4.5381 11.4346 4.8741 11.4346 5.2881C11.4346 5.7021 11.0986 6.0381 10.6846 6.0381Z" fill="#2745EA"/>
</svg>
